<?xml version="1.0" encoding="utf-8"?>
<!-- Generator: Adobe Illustrator 25.2.0, SVG Export Plug-In . SVG Version: 6.00 Build 0)  -->
<svg version="1.1" id="Calque_1" xmlns="http://www.w3.org/2000/svg" xmlns:xlink="http://www.w3.org/1999/xlink" x="0px" y="0px"
	 viewBox="0 0 16 16" style="enable-background:new 0 0 16 16;" xml:space="preserve">
<style type="text/css">
	.st0{fill:#555555;}
</style>
<path image-rendering="auto" color-rendering="auto" shape-rendering="auto" class="st0" d="M5.5,0C2.5,0,0,2.5,0,5.5
	c0,3.1,2.5,5.5,5.5,5.5c1.2,0,2.4-0.4,3.3-1.1c0,0,0,0,0.1,0.1l5.7,5.7c0.3,0.3,0.8,0.3,1.1,0c0.3-0.3,0.3-0.8,0-1.1c0,0,0,0,0,0
	L10,8.9c0,0,0,0-0.1-0.1c0.7-0.9,1.1-2.1,1.1-3.3C11.1,2.5,8.6,0,5.5,0L5.5,0z M5.5,1.4c2.3,0,4.2,1.9,4.2,4.2
	c0,2.3-1.9,4.2-4.2,4.2S1.4,7.8,1.4,5.5C1.4,3.2,3.2,1.4,5.5,1.4z"/>
</svg>
